HIERARCHY
ROOT Hips
{
	OFFSET 0.00000 0.00000 0.00000
	CHANNELS 6 Xposition Yposition Zposition Zrotation Yrotation Xrotation 
	JOINT LHipJoint
	{
		OFFSET 0 0 0
		CHANNELS 3 Zrotation Yrotation Xrotation
		JOINT LeftHip
		{
			OFFSET 1.73240 -1.89999 0.57994
			CHANNELS 3 Zrotation Yrotation Xrotation
			JOINT LeftKnee
			{
				OFFSET 2.43106 -6.67930 0.00000
				CHANNELS 3 Zrotation Yrotation Xrotation
				JOINT LeftAnkle
				{
					OFFSET 2.78854 -7.66147 0.00000
					CHANNELS 3 Zrotation Yrotation Xrotation
					JOINT LeftToe
					{
						OFFSET 0.17314 -0.47571 2.01064
						CHANNELS 3 Zrotation Yrotation Xrotation
						End Site
						{
							OFFSET 0.00000 -0.00000 1.04147
						}
					}
				}
			}
		}
	}
	JOINT RHipJoint
	{
		OFFSET 0 0 0
		CHANNELS 3 Zrotation Yrotation Xrotation
		JOINT RightHip
		{
			OFFSET -1.57078 -1.89998 0.57994
			CHANNELS 3 Zrotation Yrotation Xrotation
			JOINT RightKnee
			{
				OFFSET -2.50166 -6.87326 0.00000
				CHANNELS 3 Zrotation Yrotation Xrotation
				JOINT RightAnkle
				{
					OFFSET -2.77304 -7.61886 0.00000
					CHANNELS 3 Zrotation Yrotation Xrotation
					JOINT RightToe
					{
						OFFSET -0.23513 -0.64602 2.11039
						CHANNELS 3 Zrotation Yrotation Xrotation
						End Site
						{
							OFFSET -0.00000 -0.00000 1.10597
						}
					}
				}
			}
		}
	}
	JOINT lowerback
	{
		OFFSET 0 0 0
		CHANNELS 3 Zrotation Yrotation Xrotation
		JOINT Chest
		{
			OFFSET -0.00908 2.00015 -0.35323
			CHANNELS 3 Zrotation Yrotation Xrotation
			JOINT Chest2
			{
				OFFSET 0.05647 2.02258 0.04270
				CHANNELS 3 Zrotation Yrotation Xrotation
				JOINT lowerneck
				{
					OFFSET 0 0 0
					CHANNELS 3 Zrotation Yrotation Xrotation
					JOINT Neck
					{
						OFFSET -0.02074 1.73711 0.13117
						CHANNELS 3 Zrotation Yrotation Xrotation
						JOINT Head
						{
							OFFSET -0.02359 1.73615 -0.24320
							CHANNELS 3 Zrotation Yrotation Xrotation
							End Site
							{
								OFFSET -0.00579 1.75982 -0.09688
							}
						}
					}
				}
				JOINT LeftCollar
				{
					OFFSET 0 0 0
					CHANNELS 3 Zrotation Yrotation Xrotation
					JOINT LeftShoulder
					{
						OFFSET 3.20537 1.11432 -0.27680
CHANNELS 3 Zrotation Xrotation Yrotation
						JOINT LeftElbow
						{
OFFSET 0 -5.059230 -0.000000
CHANNELS 3 Zrotation Xrotation Yrotation
							JOINT LeftWrist
							{
OFFSET 0 -3.519960 0.000000
CHANNELS 3 Zrotation Xrotation Yrotation
								JOINT lhand
								{
									OFFSET 0 0 0
CHANNELS 3 Zrotation Xrotation Yrotation
									JOINT LFingers
									{
OFFSET 0 -0.652380 0.000000
CHANNELS 3 Zrotation Xrotation Yrotation
										End Site
										{
OFFSET 0 -0.525960 0.000000
										}
									}
								}
								JOINT LThumb
								{
OFFSET 0 0.000000 0.000000
CHANNELS 3 Zrotation Xrotation Yrotation
									End Site
									{
OFFSET 0 -0.533990 0.533990
									}
								}
							}
						}
					}
				}
				JOINT RightCollar
				{
					OFFSET 0 0 0
					CHANNELS 3 Zrotation Yrotation Xrotation
					JOINT RightShoulder
					{
						OFFSET -2.96983 1.42602 -0.37449
CHANNELS 3 Zrotation Xrotation Yrotation
						JOINT RightElbow
						{
OFFSET 0 -5.408670 0.000000
CHANNELS 3 Zrotation Xrotation Yrotation
							JOINT RightWrist
							{
OFFSET 0 -3.129640 0.000000
CHANNELS 3 Zrotation Xrotation Yrotation
								JOINT rhand
								{
									OFFSET 0 0 0
CHANNELS 3 Zrotation Xrotation Yrotation
									JOINT RFingers
									{
OFFSET 0 -0.832710 0.000000
CHANNELS 3 Zrotation Xrotation Yrotation
										End Site
										{
OFFSET 0 -0.671350 0.000000
										}
									}
								}
								JOINT RThumb
								{
OFFSET 0 0.000000 0.000000
CHANNELS 3 Zrotation Xrotation Yrotation
									End Site
									{
OFFSET 0 -0.681600 0.681600
									}
								}
							}
						}
					}
				}
			}
		}
	}
}
MOTION
Frames: 9
Frame Time: 0.008333333333333333
-1.797000 17.949200 47.943400 -177.007000 -4.795500 175.913000 0.000000 0.000000 0.000000 -19.431500 -8.684700 -4.353000 3.950400 12.094200 36.065900 1.393000 -1.261400 -21.943900 0.133900 -2.358800 -6.498200 0.000000 0.000000 0.000000 27.508500 4.572900 -3.629000 -3.879200 -11.997900 35.724400 -1.427200 -11.056600 -28.976200 -0.284400 -3.430000 9.478200 -5.662600 -0.800500 14.212100 2.611600 -1.853900 -1.780600 6.481000 -0.508100 -9.685500 -4.027600 -5.332600 -5.556600 -4.980300 -2.951800 28.411200 -1.180100 -1.313200 9.939300 -0.000000 0.000000 0.000000 3.618100 15.226400 -14.204300 28.703600 -39.756000 10.570600 -156.056400 -34.115600 65.026500 0.000000 0.000000 0.000000 -7.125000 0.000000 0.000000 161.380900 52.072900 3.337500 -0.000000 0.000000 0.000000 -46.135800 -14.202000 -67.794400 -29.814800 -40.734100 -11.288600 -14.458400 -67.238800 0.545800 0.000000 0.000000 0.000000 7.125000 0.000000 -0.000000 9.566400 30.466000 3.437900
-1.789638 17.948313 47.926076 -177.085244 -4.936428 176.035561 0.000000 0.000000 0.000000 -19.507832 -8.996631 -4.257287 3.930893 12.067831 35.972449 1.408602 -1.505291 -22.003555 0.077359 -1.793838 -4.936229 0.000000 0.000000 0.000000 27.414680 4.507742 -3.723541 -3.860248 -11.972028 35.633190 -1.439502 -11.058524 -29.060923 -0.285125 -3.430241 9.479403 -5.743185 -0.840875 14.470390 2.728873 -1.935955 -1.318988 6.670264 -0.576676 -9.305639 -3.678005 -4.807787 -7.347584 -5.048495 -2.233090 28.716291 -1.235934 -1.022919 10.394469 0.000000 0.000000 0.000000 3.282413 14.013185 -13.479852 27.495306 -38.647298 9.806978 -155.580274 -33.265313 62.675458 0.000000 0.000000 0.000000 -7.125000 0.000000 0.000000 161.660583 54.225125 4.266603 0.000000 0.000000 0.000000 -45.941420 -14.475850 -67.699199 -31.706865 -42.312186 -12.543144 -14.651979 -66.777393 1.044540 0.000000 0.000000 0.000000 7.125000 0.000000 0.000000 9.466258 30.977484 3.283462
-1.758868 17.921616 47.900589 -177.345761 -4.850304 176.411803 0.000000 0.000000 0.000000 -19.485911 -8.659521 -4.688134 3.932313 12.069746 35.979216 1.449654 -2.080827 -22.184953 0.077059 -1.790540 -4.927246 0.000000 0.000000 0.000000 27.028813 4.263527 -4.479942 -3.986716 -12.142733 36.238809 -1.580045 -10.164882 -29.322103 -0.352189 -3.812960 10.551054 -5.965433 -0.717157 14.429472 2.689881 -1.810965 -1.178176 6.721774 -0.518544 -9.141994 -3.421701 -4.582464 -7.571383 -4.618227 -2.093833 28.732165 -1.116588 -0.897996 10.440635 0.000000 0.000000 0.000000 3.251416 13.965332 -13.796922 26.881329 -38.065791 9.425873 -155.188162 -33.806929 62.775841 0.000000 0.000000 0.000000 -7.125000 0.000000 0.000000 161.875355 54.084563 4.151797 0.000000 0.000000 0.000000 -45.421216 -13.443189 -67.233750 -34.514456 -44.461750 -14.472335 -13.592691 -65.047588 2.483512 0.000000 0.000000 0.000000 7.125000 0.000000 0.000000 10.473408 32.412930 3.275381
-1.700900 17.889449 47.843086 -178.314068 -4.004939 176.912608 0.000000 0.000000 0.000000 -20.240921 -8.002963 -4.969185 3.893698 12.017608 35.794374 1.492078 -1.964029 -22.545573 0.110193 -2.140096 -5.892991 0.000000 0.000000 0.000000 26.013044 4.573134 -5.244523 -4.197287 -12.418351 37.228593 -1.695397 -9.431441 -29.557669 -0.287852 -3.449965 9.534207 -6.923018 -0.683083 13.639326 2.586563 -1.887091 -0.670147 7.119827 -0.582639 -8.099608 -3.475329 -4.198887 -6.891191 -4.398995 -1.764026 27.863033 -0.976152 -0.744048 9.992194 0.000000 0.000000 0.000000 2.779031 14.420424 -14.002965 27.466479 -38.620331 9.788909 -155.155307 -33.965309 62.046618 0.000000 0.000000 0.000000 -7.125000 0.000000 0.000000 161.909956 54.767251 4.448710 0.000000 0.000000 0.000000 -44.818024 -12.472788 -66.035464 -38.643119 -47.243331 -17.436816 -10.723149 -61.677044 4.121154 0.000000 0.000000 0.000000 7.125000 0.000000 0.000000 13.011085 33.948682 3.605137
-1.593587 17.857558 47.772670 -178.586336 -4.628283 177.088354 0.000000 0.000000 0.000000 -20.086146 -8.344448 -5.057676 3.960230 12.107272 36.112577 1.541410 -2.574699 -22.784468 0.084144 -1.870514 -5.147941 0.000000 0.000000 0.000000 26.107100 3.975898 -5.459272 -4.258082 -12.496077 37.510440 -1.764291 -9.647277 -30.153126 -0.260638 -3.284287 9.071363 -6.775297 -0.915823 15.099187 2.653752 -2.279019 -0.636689 7.262914 -0.747114 -8.828571 -3.508467 -4.009989 -6.930201 -4.240360 -1.516479 27.909380 -0.889584 -0.616960 10.020430 0.000000 0.000000 0.000000 2.820058 14.198322 -14.460689 26.560922 -37.757241 9.228996 -154.649450 -34.134690 62.482966 0.000000 0.000000 0.000000 -7.125000 0.000000 0.000000 162.185144 54.294519 4.169562 0.000000 0.000000 0.000000 -42.993518 -8.899393 -62.770873 -48.318722 -52.288654 -24.839261 -8.066573 -54.131359 3.533630 0.000000 0.000000 0.000000 7.125000 0.000000 0.000000 15.031608 33.262057 4.456463
-1.475512 17.818255 47.671285 -178.319768 -3.453562 177.276656 0.000000 0.000000 0.000000 -19.385706 -8.145791 -5.466451 4.194065 12.414329 37.213815 1.653166 -2.402830 -23.664412 0.080172 -1.826875 -5.027355 0.000000 0.000000 0.000000 26.665201 3.927172 -5.462316 -4.306759 -12.557801 37.735008 -1.905225 -8.478801 -30.272595 -0.197647 -2.863045 7.897751 -5.546398 -1.111145 15.893447 2.822621 -2.381165 -0.262741 6.793145 -0.874518 -8.887831 -2.954664 -3.482338 -6.738837 -4.683336 -0.687507 27.991547 -1.049592 -0.208782 10.008004 0.000000 0.000000 0.000000 2.474022 14.790630 -13.603987 26.996373 -38.175744 9.496863 -155.145948 -34.074010 62.376527 0.000000 0.000000 0.000000 -7.125000 0.000000 0.000000 161.908359 54.455246 4.309610 0.000000 0.000000 0.000000 -38.811514 -4.761821 -54.248456 -71.645359 -58.684008 -44.175022 -7.593045 -43.917909 3.208142 0.000000 0.000000 0.000000 7.125000 0.000000 0.000000 15.348045 32.926403 4.685728
-1.345241 17.748469 47.585239 -178.023104 -0.529680 177.204394 0.000000 0.000000 0.000000 -18.807906 -7.828834 -7.128260 5.092966 13.487340 41.221942 1.647899 -0.172965 -24.241848 0.335698 -3.715381 -10.278287 0.000000 0.000000 0.000000 27.267718 4.466002 -5.269295 -4.447479 -12.733194 38.377856 -1.990329 -7.007426 -29.914370 -0.143113 -2.437881 6.717381 -4.405048 -1.042174 17.645344 3.176125 -2.204126 0.372467 6.563825 -0.873724 -9.230483 -2.129313 -2.552522 -7.257978 -5.449062 0.825126 28.472899 -1.310257 0.487806 10.304564 0.000000 0.000000 0.000000 1.298494 15.219191 -11.949004 26.949030 -38.130533 9.467682 -155.238118 -34.055890 62.642422 0.000000 0.000000 0.000000 -7.125000 0.000000 0.000000 161.850500 54.216075 4.216681 0.000000 0.000000 0.000000 -32.327842 -2.898255 -40.740404 -103.684581 -59.275634 -71.821975 -9.947956 -30.638955 1.264360 0.000000 0.000000 0.000000 7.125000 0.000000 0.000000 13.186030 31.095449 4.588924
-1.183961 17.704141 47.524500 -177.422683 2.405473 177.271781 0.000000 0.000000 0.000000 -16.445606 -7.484719 -13.855894 7.890975 16.035847 52.164790 0.932255 -0.699298 -18.017904 0.548738 -4.743355 -13.178410 0.000000 0.000000 0.000000 28.432587 5.432172 -4.737773 -4.454707 -12.742130 38.410687 -2.020252 -6.179939 -29.636701 -0.102092 -2.059344 5.669783 -3.579311 -1.277658 19.280298 3.575918 -1.701307 1.768487 6.387649 -0.441706 -8.660370 -1.722429 -1.697396 -7.640521 -5.760058 1.913793 27.976991 -1.378742 0.939969 10.223206 0.000000 0.000000 0.000000 0.865605 13.449744 -12.823945 26.046279 -37.254410 8.915635 -154.255516 -35.476363 62.250007 0.000000 0.000000 0.000000 -7.125000 0.000000 0.000000 162.418329 54.463884 4.186025 0.000000 0.000000 0.000000 -22.979970 -4.593935 -22.200145 -117.848894 -56.856382 -83.863362 -15.982090 -11.855056 -1.224093 0.000000 0.000000 0.000000 7.125000 0.000000 0.000000 8.222167 28.666186 3.299990
-1.042344 17.634580 47.403049 -175.247180 3.748286 177.844513 0.000000 0.000000 0.000000 -11.429749 -10.119910 -23.092695 11.259851 18.059694 63.622405 0.342329 -5.226737 -10.499876 0.436959 -4.241262 -11.756613 0.000000 0.000000 0.000000 31.229365 5.335027 -4.348386 -4.277179 -12.520313 37.598494 -2.048533 -5.754545 -29.586878 -0.047989 -1.413489 3.887307 -1.169868 -1.571521 20.906155 4.430380 -1.231806 2.918128 5.831143 -0.197211 -8.379303 -1.896204 -1.809021 -7.476428 -6.000631 1.710318 27.421055 -1.456985 0.773847 9.985125 0.000000 0.000000 0.000000 0.587202 11.490407 -15.947212 26.699021 -37.890124 9.313823 -154.916357 -33.968502 62.166899 0.000000 0.000000 0.000000 -7.125000 0.000000 0.000000 162.044131 54.624886 4.350930 0.000000 0.000000 0.000000 -13.421895 -8.067106 -3.543309 -98.909821 -59.676112 -67.706639 -21.972765 2.920291 -4.202733 0.000000 0.000000 0.000000 7.125000 0.000000 0.000000 3.519084 25.447637 1.667653
